<svg width="30" height="30" viewBox="0 0 198 198" fill="none" xmlns="http://www.w3.org/2000/svg">
<g clip-path="url(#clip0_3041_140)">
<path fill-rule="evenodd" clip-rule="evenodd" d="M180.657 107.011L195.225 121.606C196.377 122.764 197.03 124.338 197.03 125.973V134.183C197.03 156.183 194.742 164.164 190.448 172.21C186.254 180.156 179.768 186.657 171.833 190.871C163.802 195.165 155.838 197.457 133.882 197.457H95.3282C94.8303 197.456 94.3829 197.154 94.1934 196.693C94.004 196.233 94.1097 195.703 94.4616 195.351V195.357L109.024 180.762C110.176 179.604 111.745 178.952 113.379 178.952H131.2C147.665 178.952 153.633 177.234 159.656 174.004C165.608 170.845 170.474 165.971 173.621 160.013C176.786 154.079 178.499 148.194 178.556 132.307L178.557 107.883C178.559 107.387 178.859 106.94 179.318 106.75C179.777 106.56 180.305 106.662 180.657 107.011ZM2.10074 94.6645L16.6742 109.26C17.826 110.417 18.4788 111.991 18.4788 113.626V131.485C18.4788 147.989 20.19 153.973 23.4152 160.006C26.5605 165.964 31.424 170.84 37.3743 173.999C43.3968 177.23 49.37 178.945 65.8356 178.945H89.388C89.8878 178.944 90.3393 179.244 90.5316 179.706C90.7238 180.167 90.6188 180.699 90.2657 181.051L75.6921 195.648C74.5403 196.805 72.9716 197.457 71.3426 197.457H63.1481C41.1918 197.457 33.2333 195.165 25.2033 190.864C17.2655 186.652 10.7775 180.152 6.58193 172.205C2.34687 164.271 0.0639212 156.399 0.00132287 135.087L0 95.5367C0.00261984 95.0402 0.302429 94.5936 0.760916 94.4033C1.2194 94.2131 1.74731 94.3159 2.10074 94.6645ZM149.876 76.1529L164.444 90.7647C165.596 91.9221 166.244 93.4907 166.244 95.1308V141.939C166.244 155.569 155.219 166.622 141.616 166.622H126.022C125.529 166.619 125.086 166.325 124.893 165.872C124.7 165.419 124.794 164.894 125.133 164.537V164.532L144.111 144.627C145.428 143.31 146.382 141.775 146.98 140.129C147.504 138.735 147.772 137.258 147.77 135.769V77.025C147.77 76.5261 148.071 76.0767 148.532 75.8857C148.992 75.6949 149.523 75.8004 149.876 76.1529ZM32.8712 125.408H32.8658L52.7322 144.429C54.0431 145.746 55.5843 146.7 57.2189 147.298C58.5681 147.813 60.0381 148.093 61.574 148.093H120.186C120.684 148.096 121.131 148.397 121.321 148.858C121.51 149.318 121.404 149.847 121.053 150.2L106.474 164.8C105.322 165.952 103.753 166.605 102.124 166.605H55.4144C48.8754 166.597 42.6074 163.993 37.9887 159.364C33.3702 154.735 30.7797 148.462 30.7869 141.923V126.296C30.7893 125.804 31.0842 125.36 31.5371 125.167C31.9901 124.974 32.5143 125.068 32.8712 125.408ZM71.0079 30.8528C71.5004 30.8552 71.9442 31.1499 72.1373 31.6029C72.3303 32.0557 72.2361 32.5802 71.8965 32.937L52.9131 52.8474C51.5969 54.1638 50.648 55.6995 50.0501 57.345C49.524 58.7386 49.2545 60.2159 49.2548 61.7055V120.449C49.25 120.945 48.9494 121.389 48.4913 121.578C48.0333 121.767 47.5067 121.664 47.154 121.316L32.586 106.704C31.433 105.546 30.786 103.978 30.7869 102.343V55.535C30.7869 41.9049 41.8116 30.8528 55.4144 30.8528H71.0079ZM171.833 6.59289C179.768 10.8057 186.254 17.307 190.448 25.2527C194.684 33.1874 196.967 41.058 197.028 62.371L197.03 101.921C197.03 102.42 196.728 102.869 196.268 103.06C195.807 103.251 195.276 103.146 194.924 102.793V102.788L180.362 88.1978C179.205 87.0392 178.556 85.4686 178.557 83.8317V65.9728C178.557 49.4686 176.84 43.4845 173.621 37.4511C170.474 31.4925 165.608 26.6175 159.656 23.4591C153.639 20.2284 147.665 18.5116 131.2 18.5116H107.642C107.144 18.5089 106.697 18.2076 106.507 17.7471C106.318 17.2867 106.424 16.7577 106.775 16.4055L121.338 1.81003C122.49 0.652707 124.058 0 125.693 0H133.882C155.838 0 163.802 2.2927 171.833 6.59289ZM101.702 0C102.2 0.0026436 102.647 0.304128 102.836 0.764505C103.026 1.22488 102.92 1.754 102.568 2.10621L88.0058 16.7016C86.8485 17.859 85.2852 18.5116 83.6508 18.5116H65.8302C49.3644 18.5116 43.3913 20.2284 37.3689 23.4591C31.4165 26.6175 26.5511 31.4925 23.4042 37.4511C20.1846 43.4845 18.4679 49.4686 18.4679 65.9728V89.58C18.4652 90.0764 18.1653 90.5229 17.7069 90.7132C17.2484 90.9036 16.7205 90.8007 16.3671 90.4521L1.81004 75.8566C0.651662 74.6988 0 73.1285 0 71.4906V63.2798C0 41.2796 2.28721 33.2991 6.58193 25.2527C10.776 17.307 17.262 10.8057 25.1978 6.59289C33.1163 2.35242 40.9706 0.0640734 62.2361 0.00132603L101.702 0ZM141.616 30.8528C155.219 30.8528 166.244 41.9049 166.244 55.535V71.1615C166.241 71.654 165.945 72.0977 165.494 72.2909C165.041 72.4839 164.516 72.3897 164.159 72.0501L144.303 53.0283C142.987 51.7119 141.451 50.7576 139.811 50.1597C138.42 49.6326 136.944 49.3632 135.456 49.3644H76.844C76.3452 49.3639 75.8957 49.0633 75.7049 48.6024C75.5139 48.1416 75.6194 47.6112 75.9719 47.2583L90.5564 32.6572C91.7081 31.5054 93.2714 30.8528 94.9059 30.8528H141.616Z" fill="#010101"/>
</g>
<defs>
<clipPath id="clip0_3041_140">
<rect width="198" height="198" fill="white"/>
</clipPath>
</defs>
</svg>
