<svg width="30" height="30" viewBox="0 0 30 30" fill="none" xmlns="http://www.w3.org/2000/svg">
<g clip-path="url(#clip0_2580_12957)">
<path d="M14.0176 0.00811129C13.9531 0.0139755 13.7478 0.0345005 13.5631 0.0491612C9.30204 0.43327 5.31084 2.73205 2.78299 6.26527C1.37537 8.22979 0.475074 10.4582 0.134897 12.8186C0.0146628 13.6425 0 13.8858 0 15.003C0 16.1201 0.0146628 16.3635 0.134897 17.1874C0.950148 22.82 4.95894 27.5525 10.3959 29.3059C11.3695 29.6196 12.3959 29.8336 13.5631 29.9627C14.0176 30.0127 15.9824 30.0127 16.4369 29.9627C18.4516 29.7398 20.1583 29.2414 21.8417 28.3822C22.0997 28.2503 22.1496 28.2151 22.1144 28.1858C22.0909 28.1682 20.9912 26.6934 19.6715 24.9106L17.2727 21.6706L14.2669 17.2226C12.6129 14.7772 11.2522 12.7775 11.2405 12.7775C11.2287 12.7746 11.217 14.7508 11.2111 17.1639C11.2024 21.3891 11.1994 21.5592 11.1466 21.6589C11.0704 21.8026 11.0117 21.8612 10.8886 21.9257C10.7947 21.9727 10.7126 21.9814 10.2698 21.9814H9.76245L9.62757 21.8964C9.53958 21.8407 9.47508 21.7674 9.4311 21.6824L9.36951 21.5504L9.37536 15.6715L9.38415 9.78967L9.47508 9.67531C9.522 9.61375 9.62169 9.53458 9.69207 9.49645C9.81231 9.4378 9.85923 9.43195 10.3666 9.43195C10.9648 9.43195 11.0645 9.45541 11.2199 9.62548C11.2639 9.67237 12.8915 12.1236 14.8387 15.0763C16.7859 18.0289 19.4487 22.0606 20.7566 24.0398L23.132 27.6375L23.2522 27.5583C24.3167 26.8663 25.4428 25.8811 26.3343 24.8549C28.2317 22.6764 29.4545 20.0198 29.8651 17.1874C29.9853 16.3635 30 16.1201 30 15.003C30 13.8858 29.9853 13.6425 29.8651 12.8186C29.0498 7.18594 25.0411 2.4535 19.6041 0.700094C18.6451 0.389287 17.6246 0.175242 16.4809 0.0462287C16.1994 0.0169075 14.261 -0.0153457 14.0176 0.00811129ZM20.1583 9.08008C20.2991 9.15046 20.4135 9.28534 20.4545 9.42607C20.478 9.50233 20.4839 11.1326 20.478 14.8065L20.4692 20.0785L19.5396 18.6535L18.607 17.2285V13.3962C18.607 10.9185 18.6188 9.52579 18.6364 9.45835C18.6833 9.29413 18.7859 9.16513 18.9267 9.0889C19.0469 9.02731 19.0909 9.02146 19.5513 9.02146C19.9853 9.02146 20.0616 9.02731 20.1583 9.08008Z" fill="black"/>
</g>
<defs>
<clipPath id="clip0_2580_12957">
<rect width="30" height="30" fill="white"/>
</clipPath>
</defs>
</svg>
