<svg width="30" height="30" viewBox="0 0 30 30" fill="none" xmlns="http://www.w3.org/2000/svg">
<path d="M8.8357 22.3257C8.8357 22.9718 8.95513 23.2935 9.19401 23.2935L11.3784 23.2962C11.6252 23.2962 11.75 22.9745 11.75 22.3284V3.2412C11.75 2.78815 11.6465 2.56297 11.4368 2.56297C11.3939 2.56195 11.3511 2.56645 11.3094 2.57637L7.53516 3.55754C7.3069 3.60579 7.19277 3.82294 7.19277 4.20629V5.59225C7.19277 6.03458 7.29628 6.24637 7.50596 6.2276C7.51658 6.2276 7.89612 6.13109 8.6499 5.93808C8.77465 5.91931 8.8357 6.06407 8.8357 6.37236V22.3257Z" fill="#333333"/>
<path d="M17.9766 23.2426C18.3044 23.3002 18.6367 23.3271 18.9693 23.323L20.4238 23.3203C20.6998 23.3203 20.8378 23.1219 20.8378 22.7278V21.862C20.8378 21.5081 20.7104 21.3285 20.453 21.3285H19.4391C19.24 21.3285 19.0702 21.299 18.9321 21.2427C18.7941 21.1864 18.6561 21.0684 18.5181 20.8969C18.3801 20.7253 18.2766 20.4519 18.2049 20.0819C18.1332 19.712 18.0987 19.2455 18.0987 18.6879V11.238C18.0987 11.112 18.1093 11.0343 18.1332 10.9994C18.1571 10.9646 18.2022 10.9485 18.2686 10.9485H20.0973C20.3362 10.9485 20.4556 10.7179 20.4556 10.2568V9.47671C20.4556 9.0049 20.3362 8.76899 20.0973 8.76899H18.2739C18.1571 8.76899 18.1014 8.64031 18.1014 8.38027V2.76402C18.1014 2.25468 17.9819 2 17.7431 2H16.3125C16.0922 2 15.9701 2.25468 15.9409 2.76402L15.6834 8.38027C15.6834 8.64031 15.6304 8.76899 15.5268 8.76899H14.6404C14.4015 8.76899 14.282 9.0049 14.282 9.47671V10.2568C14.282 10.7179 14.4015 10.9485 14.6404 10.9485H15.5268C15.6304 10.9485 15.6834 11.045 15.6834 11.238V18.6423C15.6834 19.4519 15.7471 20.1489 15.8692 20.736C15.9913 21.324 16.1506 21.7815 16.347 22.1086C16.5314 22.4238 16.7893 22.6889 17.0981 22.8807C17.4033 23.0683 17.6953 23.1889 17.9766 23.2426Z" fill="#333333"/>
<path d="M25.0261 24.5132C24.8642 24.8752 24.6731 25.0548 24.4555 25.0548C24.3599 25.0548 24.1502 25.0065 23.8211 24.9046C23.4973 24.8081 23.3248 24.7599 23.3062 24.7599C23.0779 24.7599 22.9638 25.1164 22.9638 25.8295C22.9638 26.1861 23.001 26.4086 23.0779 26.4944C23.3531 26.909 23.8768 27.1163 24.6492 27.1163H24.7925C25.2809 27.1056 25.6684 26.9957 25.9657 26.7839C26.2629 26.5721 26.5284 26.1727 26.7672 25.5856C27.007 24.9985 27.2264 24.1513 27.4255 23.0442L29.9708 9.65901C29.9877 9.54897 29.9975 9.43792 30 9.32659C30 8.95128 29.9177 8.76363 29.7558 8.76363H28.5561C28.4965 8.76259 28.4375 8.77591 28.3839 8.80248C28.3304 8.82905 28.2839 8.86811 28.2483 8.91643C28.1686 9.0183 28.1076 9.21132 28.0704 9.50084L26.6133 19.4064C26.6133 19.5109 26.5921 19.5645 26.5549 19.5645C26.5443 19.5645 26.5204 19.5055 26.4832 19.3903L24.6253 9.45795C24.5811 9.17915 24.5147 8.99417 24.4263 8.90303C24.3839 8.85825 24.3327 8.82295 24.2761 8.7994C24.2194 8.77585 24.1584 8.76458 24.0971 8.76631H22.3666C22.2233 8.76631 22.1516 8.94056 22.1516 9.28638C22.1546 9.39324 22.1643 9.4998 22.1808 9.60539L24.9836 21.3714C25.1747 22.2846 25.2703 22.819 25.2703 22.9745C25.2703 23.6393 25.188 24.1513 25.0261 24.5132Z" fill="#333333"/>
<path d="M1.64293 22.3525C1.64293 22.9986 1.76236 23.3203 2.00124 23.3203H4.18827C4.43511 23.3203 4.55985 22.9986 4.55985 22.3525V3.26534C4.55985 2.81229 4.45634 2.5871 4.24666 2.5871C4.2038 2.58608 4.16099 2.59059 4.11926 2.60051L0.342387 3.58435C0.11413 3.63261 0 3.84975 0 4.2331V5.61907C0 6.0614 0.103512 6.27318 0.313192 6.25442C0.323808 6.25442 0.703353 6.15791 1.45714 5.96489C1.58188 5.94613 1.64293 6.09089 1.64293 6.39918V22.3525Z" fill="#333333"/>
</svg>
