<svg width="30" height="30" viewBox="0 0 30 30" fill="none" xmlns="http://www.w3.org/2000/svg">
<path fill-rule="evenodd" clip-rule="evenodd" d="M14.9289 9.12208C15.1309 8.93017 13.922 8.67786 12.9839 9.31768C12.292 9.78979 12.2698 10.8014 12.9322 11.3749C12.9986 11.4316 13.0532 11.4721 13.1041 11.5051C13.2973 11.4141 13.5179 11.3221 13.7715 11.2397C14.2002 11.1008 14.5563 11.0286 14.8491 10.9904C14.9892 10.8337 15.1523 10.5582 15.1117 10.0589C15.0563 9.38159 14.543 9.4889 14.9289 9.12208ZM21.2748 12.7994C21.1604 12.736 20.625 12.7611 20.2487 12.8058C19.5319 12.8904 18.7582 13.139 18.5886 13.2713C18.2803 13.5095 18.4203 13.9249 18.6483 14.0956C19.287 14.5727 19.8468 14.8926 20.4377 14.8147C20.8005 14.7668 21.1205 14.1926 21.347 13.6713C21.502 13.3125 21.502 12.9249 21.2748 12.7993L21.2748 12.7994ZM18.8269 8.55962C18.7856 8.65363 18.7205 8.71532 18.818 9.02212L18.8243 9.03965L18.8396 9.07937L18.8803 9.17135C19.0557 9.53005 19.2484 9.86843 19.5705 10.0411C19.654 10.0273 19.7402 10.0177 19.8295 10.0132C20.132 9.99993 20.323 10.0478 20.444 10.1132C20.4549 10.053 20.4571 9.96467 20.4502 9.83445C20.4265 9.38007 20.5402 8.60726 19.6669 8.20073C19.3372 8.04779 18.8747 8.09489 18.7204 8.28606C18.7487 8.28973 18.7737 8.29547 18.7936 8.30213C19.0267 8.38304 18.8688 8.4632 18.8268 8.55961L18.8269 8.55962ZM27.8212 14.7875L27.0689 14.9308L25.624 0L1 2.85518L4.03359 27.4727L6.91593 27.0543C6.68578 26.7258 6.32746 26.3279 5.71515 25.8192C4.86625 25.114 5.1664 23.9162 5.66727 23.1597C6.32963 21.8817 9.74298 20.2574 9.54978 18.2147C9.48037 17.472 9.3623 16.5051 8.6728 15.8425C8.64698 16.1176 8.69353 16.3823 8.69353 16.3823C8.69353 16.3823 8.41019 16.0213 8.26927 15.5287C8.12926 15.3396 8.01935 15.2794 7.8703 15.0273C7.76409 15.3191 7.77814 15.6573 7.77814 15.6573C7.77814 15.6573 7.54651 15.1104 7.50902 14.6484C7.37178 14.8551 7.33706 15.2478 7.33706 15.2478C7.33706 15.2478 7.03617 14.3852 7.1047 13.9205C6.96764 13.5162 6.56037 12.714 6.67544 10.8904C7.42701 11.4168 9.08141 11.292 9.72603 10.3418C9.93992 10.0273 10.0868 9.1684 9.61909 7.47577C9.31894 6.39044 8.57551 4.77426 8.28551 4.16104L8.25095 4.18597C8.40351 4.68006 8.71843 5.71533 8.83942 6.21755C9.20531 7.74044 9.30339 8.27055 9.13143 8.9728C8.98551 9.58306 8.63512 9.9824 7.74707 10.4286C6.85919 10.8764 5.6804 9.78679 5.60596 9.7264C4.74302 9.03892 4.07549 7.91758 4.00105 7.3727C3.9237 6.77647 4.34479 6.41832 4.55721 5.93088C4.25337 6.01769 3.9148 6.17211 3.9148 6.17211C3.9148 6.17211 4.31893 5.75375 4.81745 5.39191C5.02414 5.25505 5.14512 5.16842 5.36252 4.98741C5.04759 4.98224 4.79178 4.99107 4.79178 4.99107C4.79178 4.99107 5.3169 4.70737 5.86122 4.50068C5.463 4.48295 5.08158 4.49773 5.08158 4.49773C5.08158 4.49773 6.25354 3.97353 7.17929 3.58898C7.81578 3.3278 8.4375 3.40519 8.78714 3.91018C9.24577 4.57197 9.72747 4.9316 10.7483 5.15435C11.3752 4.87637 11.5655 4.73378 12.3533 4.51896C13.0464 3.7565 13.5908 3.65805 13.5908 3.65805C13.5908 3.65805 13.3209 3.90574 13.2485 4.29473C13.6418 3.98517 14.0725 3.72639 14.0725 3.72639C14.0725 3.72639 13.9057 3.93234 13.7502 4.25946L13.7862 4.3132C14.245 4.03818 14.7841 3.82133 14.7841 3.82133C14.7841 3.82133 14.6301 4.0162 14.4493 4.26832C14.7952 4.26536 15.4967 4.28309 15.7688 4.31394C17.3759 4.34921 17.7093 2.59766 18.3259 2.37786C19.0981 2.10209 19.4433 1.9353 20.7592 3.22787C21.8883 4.3374 22.7704 6.32354 22.3323 6.7683C21.9651 7.13734 21.2407 6.62423 20.4376 5.6235C20.0133 5.09339 19.6925 4.46687 19.5421 3.67061C19.4152 2.99847 18.9219 2.60874 18.9219 2.60874C18.9219 2.60874 19.208 3.24708 19.208 3.80951C19.208 4.11686 19.2464 5.26536 19.739 5.91016C19.6903 6.00436 19.6676 6.37636 19.6136 6.44766C19.0407 5.75501 17.8096 5.25945 17.609 5.11316C18.2884 5.66986 19.8497 6.94839 20.4494 8.17428C21.0166 9.33312 20.6823 10.3955 20.9694 10.6706C21.051 10.7493 22.1891 12.1676 22.4082 12.88C22.7902 14.122 22.4311 15.4271 21.9311 16.2367L20.5347 16.4543C20.3306 16.3977 20.1927 16.3691 20.0098 16.2631C20.1107 16.0845 20.3114 15.639 20.3135 15.547L20.2348 15.4088C19.8002 16.0243 19.0722 16.622 18.4675 16.9653C17.6761 17.414 16.7638 17.3447 16.17 17.1609C14.4847 16.6412 12.8909 15.5021 12.5065 15.2029C12.5065 15.2029 12.4947 15.4419 12.5671 15.4956C12.9919 15.9749 13.9655 16.8419 14.9066 17.4463L12.9003 17.6668L13.8489 25.0514C13.4285 25.1116 13.3628 25.1411 12.9025 25.2065C12.4969 23.7734 11.7209 22.8375 10.8728 22.2926C10.1249 21.8118 9.09314 21.7036 8.10552 21.8992L8.04219 21.9727C8.72874 21.9014 9.53941 22.0006 10.3721 22.5279C11.1894 23.0447 11.8479 24.3794 12.0906 25.1831C12.401 26.2102 12.6157 27.3088 11.7801 28.4734C11.1857 29.3014 9.4502 29.7588 8.0481 28.7691C8.42268 29.3713 8.92859 29.8639 9.61015 29.9566C10.6222 30.094 11.5824 29.9184 12.2433 29.2397C12.8074 28.6594 13.107 27.4463 13.0279 26.1685L13.9212 26.039L14.2435 28.3323L29.0271 26.5521L27.8212 14.7875ZM13.6652 18.178L15.5254 17.922C15.8263 18.0573 16.0357 18.1089 16.3965 18.2007C16.9585 18.347 17.6091 18.4875 18.5723 18.0021C18.7965 17.8911 19.2635 17.4639 19.4522 17.2206L27.0726 15.8381L27.8501 25.247L14.7945 27.6L13.6652 18.178ZM24.4764 21.3006L21.9805 19.6543L19.8985 23.1323L17.477 22.4243L15.3448 25.6787L15.4539 26.7029L27.0468 24.5669L26.3733 17.3235L24.4764 21.3006Z" fill="#612BA6"/>
</svg>
