<svg width="30" height="30" viewBox="0 0 30 30" fill="none" xmlns="http://www.w3.org/2000/svg">
<path d="M17.6239 15.4087C17.6239 16.8579 16.4491 18.0327 14.9999 18.0327C13.5507 18.0327 12.376 16.8579 12.376 15.4087C12.376 13.9595 13.5507 12.7848 14.9999 12.7848C16.4491 12.7848 17.6239 13.9595 17.6239 15.4087Z" fill="#61DAFB"/>
<path fill-rule="evenodd" clip-rule="evenodd" d="M13.8947 4.17212C14.2605 4.46947 14.6298 4.79483 15.0002 5.14626C15.3706 4.79492 15.7397 4.46964 16.1055 4.17236C17.2148 3.27082 18.332 2.59483 19.3912 2.25217C20.4503 1.90956 21.5531 1.87215 22.5 2.41884C23.4469 2.96552 23.9659 3.93933 24.1987 5.02781C24.4316 6.11641 24.4048 7.42199 24.1787 8.83341C24.1041 9.29881 24.007 9.78113 23.8879 10.2775C24.3774 10.4226 24.8438 10.5797 25.2841 10.7479C26.6195 11.2577 27.7636 11.8873 28.5899 12.6333C29.4162 13.3791 30 14.3155 30 15.4089C30 16.5023 29.4162 17.4387 28.5899 18.1845C27.7636 18.9305 26.6195 19.5601 25.2841 20.0699C24.8438 20.2381 24.3774 20.3952 23.8879 20.5402C24.0071 21.0368 24.1042 21.5193 24.1788 21.9848C24.4049 23.3962 24.4317 24.7018 24.1989 25.7904C23.9661 26.8789 23.447 27.8527 22.5002 28.3994C21.5533 28.946 20.4504 28.9086 19.3913 28.566C18.3322 28.2234 17.2149 27.5474 16.1056 26.6458C15.7398 26.3485 15.3706 26.0232 15.0002 25.6718C14.6297 26.0233 14.2604 26.3487 13.8945 26.6461C12.7853 27.5476 11.668 28.2236 10.6088 28.5663C9.54975 28.9089 8.44689 28.9463 7.50001 28.3996C6.55312 27.8529 6.03409 26.8791 5.80127 25.7906C5.56843 24.702 5.59522 23.3965 5.82135 21.985C5.89594 21.5194 5.99311 21.0369 6.11226 20.5403C5.62268 20.3952 5.15629 20.2381 4.71586 20.0699C3.38046 19.5601 2.2364 18.9305 1.41006 18.1845C0.583825 17.4387 0 16.5023 0 15.4089C0 14.3155 0.583825 13.3791 1.41006 12.6333C2.2364 11.8873 3.38046 11.2577 4.71586 10.7479C5.1563 10.5797 5.62271 10.4226 6.1123 10.2775C5.9932 9.78101 5.89606 9.29862 5.82149 8.83317C5.59536 7.42174 5.56857 6.11617 5.80141 5.02756C6.03423 3.93909 6.55327 2.96528 7.50015 2.41859C8.44703 1.87191 9.54989 1.90932 10.6089 2.25193C11.6681 2.59458 12.7854 3.27057 13.8947 4.17212ZM8.42039 4.0125C8.75914 3.81693 9.27503 3.7548 10.0424 4.00306C10.8097 4.25128 11.7266 4.78177 12.7339 5.60038C13.0566 5.86267 13.3846 6.15126 13.7157 6.46459C12.9524 7.3075 12.1947 8.25154 11.4615 9.27959C10.2045 9.40049 9.00799 9.58468 7.89628 9.82423C7.7905 9.38087 7.70458 8.95259 7.6388 8.54201C7.43348 7.26044 7.43252 6.20112 7.60119 5.41252C7.76989 4.62379 8.08165 4.20808 8.42039 4.0125ZM13.8738 9.12929C14.2478 8.65528 14.6242 8.20761 15.0002 7.78847C15.3761 8.20761 15.7526 8.65529 16.1265 9.1293C15.7544 9.11833 15.3787 9.11275 15 9.11275C14.6214 9.11275 14.2458 9.11832 13.8738 9.12929ZM16.2847 6.46461C17.048 7.30753 17.8057 8.25157 18.5388 9.27962C19.7958 9.40053 20.9923 9.58473 22.1039 9.82428C22.2097 9.38099 22.2956 8.95277 22.3614 8.54225C22.5667 7.26068 22.5676 6.20136 22.399 5.41276C22.2303 4.62403 21.9185 4.20832 21.5798 4.01275C21.241 3.81717 20.7251 3.75504 19.9577 4.0033C19.1904 4.25153 18.2735 4.78202 17.2663 5.60062C16.9437 5.86285 16.6158 6.15136 16.2847 6.46461ZM15 10.9532C15.8635 10.9532 16.7063 10.9836 17.5217 11.0415C17.9794 11.7186 18.4271 12.4333 18.8589 13.1811C19.2906 13.9289 19.6857 14.674 20.0432 15.409C19.6856 16.144 19.2905 16.8892 18.8587 17.637C18.4271 18.3847 17.9794 19.0993 17.5218 19.7763C16.7064 19.8342 15.8636 19.8646 15 19.8646C14.1366 19.8646 13.2938 19.8342 12.4786 19.7764C12.0209 19.0992 11.5732 18.3846 11.1414 17.6368C10.7097 16.889 10.3146 16.1439 9.95704 15.409C10.3146 14.6741 10.7096 13.9291 11.1413 13.1814C11.5731 12.4335 12.0209 11.7187 12.4787 11.0414C13.2939 10.9836 14.1366 10.9532 15 10.9532ZM20.4528 12.2609C20.6421 12.5888 20.8251 12.9169 21.0016 13.2446C21.2252 12.6837 21.4247 12.1338 21.5997 11.5986C21.0487 11.4826 20.4727 11.3805 19.8752 11.2936C20.0707 11.6104 20.2634 11.9329 20.4528 12.2609ZM20.4526 18.5573C20.642 18.2292 20.8251 17.901 21.0016 17.5733C21.2252 18.1341 21.4247 18.684 21.5997 19.2191C21.0487 19.3352 20.4728 19.4373 19.8753 19.5242C20.0708 19.2076 20.2634 18.8851 20.4526 18.5573ZM22.0776 15.4089C22.6014 16.5579 23.0401 17.6862 23.3885 18.7687C23.8253 18.6386 24.2392 18.4988 24.6276 18.3505C25.8402 17.8876 26.7581 17.3587 27.3567 16.8184C27.9554 16.2779 28.1595 15.8 28.1595 15.4089C28.1595 15.0177 27.9554 14.5399 27.3567 13.9994C26.7581 13.4591 25.8402 12.9302 24.6276 12.4673C24.2392 12.3189 23.8253 12.1792 23.3885 12.0491C23.0401 13.1316 22.6014 14.2599 22.0776 15.4089ZM18.539 21.5382C19.7959 21.4173 20.9923 21.2331 22.104 20.9935C22.2098 21.4369 22.2957 21.8653 22.3615 22.2759C22.5668 23.5575 22.5678 24.6168 22.3991 25.4054C22.2304 26.1942 21.9187 26.6099 21.5799 26.8054C21.2412 27.001 20.7253 27.0632 19.9579 26.8149C19.1906 26.5667 18.2737 26.0362 17.2664 25.2176C16.9438 24.9553 16.6158 24.6667 16.2847 24.3534C17.048 23.5104 17.8058 22.5663 18.539 21.5382ZM16.1267 21.6885C15.7527 22.1626 15.3762 22.6104 15.0002 23.0296C14.6242 22.6104 14.2477 22.1626 13.8737 21.6885C14.2457 21.6995 14.6213 21.705 15 21.705C15.3788 21.705 15.7545 21.6995 16.1267 21.6885ZM9.54753 18.5571C9.73686 18.885 9.92951 19.2075 10.125 19.5242C9.5275 19.4374 8.95152 19.3352 8.40051 19.2192C8.57555 18.684 8.77505 18.1341 8.99862 17.5732C9.17516 17.9009 9.35817 18.2291 9.54753 18.5571ZM11.4614 21.5382C10.2044 21.4173 9.00791 21.2331 7.89623 20.9936C7.79041 21.4371 7.70446 21.8655 7.63866 22.2762C7.43333 23.5578 7.43237 24.6171 7.60105 25.4057C7.76975 26.1944 8.0815 26.6101 8.42025 26.8057C8.75899 27.0013 9.27489 27.0634 10.0423 26.8151C10.8096 26.5669 11.7265 26.0364 12.7337 25.2178C13.0565 24.9555 13.3845 24.6668 13.7157 24.3535C12.9524 23.5105 12.1946 22.5663 11.4614 21.5382ZM7.92264 15.4089C7.39887 16.5579 6.96013 17.6862 6.61174 18.7687C6.17481 18.6386 5.76088 18.4989 5.37236 18.3505C4.15982 17.8876 3.24195 17.3587 2.64334 16.8184C2.04463 16.2779 1.84049 15.8 1.84049 15.4089C1.84049 15.0177 2.04463 14.5399 2.64334 13.9994C3.24195 13.4591 4.15982 12.9302 5.37236 12.4673C5.76089 12.3189 6.17482 12.1792 6.61176 12.0491C6.96014 13.1316 7.39887 14.2599 7.92264 15.4089ZM8.99864 13.2447C8.77507 12.6837 8.57557 12.1338 8.40053 11.5986C8.95157 11.4826 9.52757 11.3804 10.1251 11.2936C9.92953 11.6104 9.7368 11.9331 9.54738 12.2611C9.35808 12.589 9.17513 12.917 8.99864 13.2447Z" fill="#61DAFB"/>
</svg>
