<svg width="30" height="30" viewBox="0 0 30 30" fill="none" xmlns="http://www.w3.org/2000/svg">
<path d="M24.962 5.77893C24.938 5.63389 24.8182 5.5372 24.6983 5.5372C24.5785 5.5372 22.4692 5.48886 22.4692 5.48886C22.4692 5.48886 20.6956 3.74842 20.5278 3.57921C20.36 3.41 20.0005 3.45835 19.8806 3.50669C19.8806 3.50669 19.5451 3.60338 18.9938 3.77259C18.8979 3.45835 18.7541 3.09576 18.5623 2.70899C17.9392 1.50036 17.0044 0.847691 15.9018 0.847691C15.8299 0.847691 15.758 0.847691 15.6621 0.871864C15.6382 0.823519 15.5902 0.799346 15.5663 0.751C15.0869 0.2192 14.4637 -0.0225269 13.7207 0.00164588C12.2826 0.0499913 10.8444 1.08942 9.69394 2.95072C8.87901 4.25605 8.25582 5.89979 8.06407 7.18095C6.41023 7.68857 5.25974 8.05116 5.23577 8.07534C4.39687 8.34124 4.3729 8.36541 4.27702 9.16311C4.20512 9.76743 2 26.8092 2 26.8092L20.3121 30L28.2457 28.0178C28.2217 27.9937 24.9859 5.92396 24.962 5.77893ZM18.083 4.06266C17.6515 4.18353 17.1722 4.35274 16.6688 4.49777C16.6688 3.77259 16.5729 2.73316 16.2374 1.86295C17.316 2.0805 17.8433 3.31331 18.083 4.06266ZM15.6861 4.81202C14.7274 5.10209 13.6727 5.44051 12.6181 5.75476C12.9057 4.61864 13.481 3.48252 14.1521 2.73316C14.4158 2.46726 14.7753 2.15302 15.1828 1.95964C15.6142 2.80568 15.7101 3.99015 15.6861 4.81202ZM13.7446 0.968555C14.0802 0.968555 14.3678 1.04107 14.6075 1.18611C14.224 1.40366 13.8405 1.69374 13.481 2.0805C12.5702 3.07158 11.8751 4.61864 11.5875 6.09317C10.7246 6.35907 9.86172 6.62497 9.07075 6.8667C9.5741 4.54612 11.5156 1.04107 13.7446 0.968555Z" fill="#95BF47"/>
<path d="M24.6983 5.53729C24.5785 5.53729 22.4692 5.48894 22.4692 5.48894C22.4692 5.48894 20.6956 3.74851 20.5278 3.5793C20.4559 3.50678 20.384 3.48261 20.2881 3.45844V29.9759L28.2217 27.9938C28.2217 27.9938 24.9859 5.92405 24.962 5.75484C24.938 5.63398 24.8182 5.53729 24.6983 5.53729Z" fill="#5E8E3E"/>
<path d="M15.8777 9.64734L14.9669 13.1282C14.9669 13.1282 13.9363 12.6448 12.7139 12.7415C10.9162 12.8623 10.9162 13.9984 10.9162 14.2885C11.0121 15.8356 15.0628 16.174 15.3025 19.8241C15.4703 22.7006 13.7925 24.6586 11.3716 24.8036C8.44745 24.997 6.84155 23.2566 6.84155 23.2566L7.46474 20.5976C7.46474 20.5976 9.07064 21.8304 10.3649 21.7337C11.2038 21.6854 11.5154 20.9844 11.4915 20.5009C11.3716 18.4704 8.06395 18.5913 7.84824 15.2554C7.68046 12.4514 9.50207 9.599 13.5288 9.35727C15.0868 9.23641 15.8777 9.64734 15.8777 9.64734Z" fill="white"/>
</svg>
