<svg width="30" height="30" viewBox="0 0 30 30" fill="none" xmlns="http://www.w3.org/2000/svg">
<path d="M21.5846 20.6934C21.7576 19.2524 21.7057 19.0411 22.7791 19.2745L23.0516 19.2984C23.8769 19.336 24.9565 19.1657 25.5908 18.871C26.9562 18.2375 27.7659 17.1797 26.4195 17.4576C23.3484 18.0912 23.1373 17.0513 23.1373 17.0513C26.3802 12.2397 27.7358 6.13182 26.5657 4.63674C23.3742 0.558699 17.8497 2.48711 17.7573 2.53718L17.7278 2.54262C17.121 2.41671 16.4419 2.34149 15.6791 2.32915C14.2893 2.30632 13.2348 2.69349 12.4348 3.30023C12.4348 3.30023 2.57949 -0.760045 3.03798 8.40644C3.13549 10.3564 5.83306 23.1616 9.05042 19.2938C10.2263 17.8795 11.3628 16.6837 11.3628 16.6837C11.9271 17.0586 12.6027 17.2498 13.3113 17.1811L13.366 17.1344C13.3489 17.31 13.3565 17.4818 13.388 17.6851C12.5593 18.6112 12.8028 18.7738 11.1457 19.1148C9.46922 19.4604 10.4542 20.0755 11.097 20.2363C11.8766 20.4313 13.6801 20.7074 14.899 19.0015L14.8505 19.1961C15.1756 19.4562 15.1537 21.0657 15.1998 22.2156C15.2459 23.3656 15.3229 24.4387 15.5573 25.0714C15.7917 25.7039 16.0683 27.3336 18.2461 26.8668C20.0662 26.4768 21.4578 25.9154 21.5846 20.6934" fill="black"/>
<path d="M21.5846 20.6934C21.7576 19.2524 21.7057 19.0411 22.7791 19.2745L23.0516 19.2984C23.8769 19.336 24.9565 19.1657 25.5908 18.871C26.9562 18.2375 27.7659 17.1797 26.4195 17.4576C23.3485 18.0912 23.1373 17.0513 23.1373 17.0513C26.3802 12.2397 27.7358 6.13182 26.5657 4.63674C23.3742 0.558699 17.8497 2.48711 17.7573 2.53718L17.7278 2.54262C17.121 2.41671 16.4419 2.34149 15.6791 2.32915C14.2893 2.30632 13.2348 2.69349 12.4348 3.30023C12.4348 3.30023 2.57949 -0.760044 3.03798 8.40644C3.13549 10.3564 5.83306 23.1616 9.05042 19.2938C10.2263 17.8795 11.3628 16.6837 11.3628 16.6837C11.9271 17.0586 12.6027 17.2498 13.3113 17.1811L13.366 17.1344C13.3489 17.31 13.3565 17.4818 13.388 17.6851C12.5593 18.6112 12.8028 18.7738 11.1457 19.1148C9.46922 19.4604 10.4542 20.0755 11.097 20.2363C11.8766 20.4313 13.6801 20.7074 14.899 19.0015L14.8505 19.1961C15.1756 19.4562 15.1537 21.0657 15.1998 22.2156C15.2459 23.3656 15.3229 24.4387 15.5573 25.0714C15.7917 25.7039 16.0683 27.3336 18.2461 26.8668C20.0662 26.4768 21.4578 25.9154 21.5846 20.6934" stroke="black" stroke-width="3.88254"/>
<path d="M26.4194 17.4568C23.348 18.0903 23.1369 17.0505 23.1369 17.0505C26.3797 12.2386 27.7354 6.13055 26.5655 4.63566C23.374 0.557856 17.8493 2.48639 17.7571 2.53646L17.7274 2.54177C17.1206 2.41581 16.4415 2.34077 15.6783 2.32831C14.2885 2.30554 13.2343 2.69265 12.4344 3.29927C12.4344 3.29927 2.57887 -0.760826 3.03724 8.4056C3.13475 10.3557 5.83225 23.1608 9.04974 19.2931C10.2257 17.8788 11.362 16.6829 11.362 16.6829C11.9263 17.0578 12.6019 17.2491 13.3102 17.1804L13.3652 17.1337C13.3481 17.3093 13.356 17.481 13.3873 17.6844C12.5584 18.6104 12.802 18.773 11.145 19.1141C9.46841 19.4596 10.4534 20.0748 11.0964 20.2356C11.876 20.4305 13.6796 20.7067 14.8983 19.0007L14.8497 19.1954C15.1745 19.4555 15.4025 20.8874 15.3643 22.1854C15.3261 23.4834 15.3005 24.3746 15.5564 25.0706C15.8123 25.7667 16.0674 27.3328 18.2456 26.8661C20.0657 26.4761 21.0089 25.4653 21.1401 23.7793C21.2332 22.5807 21.4439 22.7578 21.4572 21.6862L21.6262 21.1789C21.8211 19.554 21.6572 19.0299 22.7785 19.2737L23.051 19.2976C23.8763 19.3351 24.9565 19.1649 25.5905 18.8702C26.9557 18.2366 27.7653 17.1789 26.4193 17.4568H26.4194Z" fill="#336791"/>
<path d="M15.0301 18.3888C14.9456 21.4121 15.0514 24.4566 15.3472 25.1965C15.6432 25.9364 16.2767 27.3755 18.4551 26.9089C20.275 26.5187 20.9372 25.7637 21.2245 24.0971C21.4362 22.8709 21.8441 19.4655 21.8965 18.7678" stroke="white" stroke-width="1.29418" stroke-linecap="round" stroke-linejoin="round"/>
<path d="M12.4193 3.23214C12.4193 3.23214 2.55702 -0.798701 3.0155 8.36772C3.11302 10.3178 5.81071 23.1234 9.02813 19.2554C10.2039 17.841 11.2672 16.7316 11.2672 16.7316" stroke="white" stroke-width="1.29418" stroke-linecap="round" stroke-linejoin="round"/>
<path d="M17.7465 2.49645C17.4052 2.60348 23.2325 0.366174 26.5443 4.5979C27.7141 6.09286 26.3585 12.2009 23.1157 17.0129" stroke="white" stroke-width="1.29418" stroke-linecap="round" stroke-linejoin="round"/>
<path d="M23.1157 17.0131C23.1157 17.0131 23.3271 18.0533 26.3985 17.4193C27.7442 17.1414 26.9343 18.1993 25.5695 18.8332C24.4494 19.353 21.9381 19.4862 21.8971 18.7679C21.7915 16.9144 23.2188 17.4775 23.1158 17.0131C23.0227 16.5949 22.3844 16.1844 21.9622 15.1607C21.5935 14.2673 16.9067 7.4155 23.2619 8.4331C23.4947 8.38492 21.6044 2.38818 15.6569 2.29067C9.71069 2.19315 9.90577 9.60317 9.90577 9.60317" stroke="white" stroke-width="1.29418" stroke-linecap="round" stroke-linejoin="bevel"/>
<path d="M13.366 17.6465C12.537 18.5725 12.7808 18.7351 11.1238 19.0763C9.44715 19.4219 10.4322 20.037 11.0751 20.1977C11.8547 20.3928 13.6583 20.6689 14.877 18.9625C15.2481 18.443 14.8748 17.614 14.365 17.4027C14.1187 17.3006 13.7893 17.1728 13.366 17.6465V17.6465Z" stroke="white" stroke-width="1.29418" stroke-linecap="round" stroke-linejoin="round"/>
<path d="M13.3113 17.6302C13.2278 17.0857 13.4902 16.4378 13.7715 15.6799C14.1941 14.5426 15.1693 13.4051 14.3892 9.79754C13.8077 7.10919 9.90775 9.23806 9.9053 9.60258C9.90292 9.96698 10.0817 11.4502 9.84015 13.1774C9.52497 15.4313 11.2743 17.3375 13.2887 17.1425" stroke="white" stroke-width="1.29418" stroke-linecap="round" stroke-linejoin="round"/>
<path d="M12.3835 9.54875C12.3659 9.67325 12.6114 10.0055 12.9315 10.0499C13.2511 10.0944 13.5246 9.83481 13.542 9.71044C13.5593 9.58594 13.3141 9.4488 12.9939 9.40423C12.6741 9.35959 12.4004 9.42456 12.3835 9.54875H12.3835Z" fill="white" stroke="white" stroke-width="0.43139"/>
<path d="M22.1175 9.29442C22.1349 9.41892 21.8897 9.75114 21.5695 9.79553C21.2497 9.8401 20.9761 9.58048 20.9586 9.4561C20.9417 9.3316 21.1869 9.19446 21.5068 9.14989C21.8267 9.10532 22.1002 9.17023 22.1175 9.29448V9.29442Z" fill="white" stroke="white" stroke-width="0.215695"/>
<path d="M23.2614 8.43311C23.3141 9.40968 23.0511 10.0748 23.0179 11.1144C22.9688 12.6255 23.7384 14.3551 22.5789 16.0867" stroke="white" stroke-width="1.29418" stroke-linecap="round" stroke-linejoin="round"/>
</svg>
