<svg width="30" height="30" viewBox="0 0 30 30" fill="none" xmlns="http://www.w3.org/2000/svg">
<path d="M9.99121 15.9214V19.4123C12.6548 19.4092 15.2084 18.3821 17.0919 16.5564C18.9753 14.7307 20.0348 12.2555 20.0381 9.67364H16.4366C16.4345 11.33 15.7547 12.918 14.5465 14.0891C13.3382 15.2604 11.7 15.9193 9.99121 15.9214Z" fill="#3BE081"/>
<path d="M9.9898 25.5379C8.29331 25.5379 6.66634 24.8847 5.46675 23.7219C4.26716 22.5591 3.59324 20.982 3.59324 19.3376C3.59324 17.6931 4.26716 16.1161 5.46675 14.9532C6.66634 13.7905 8.29331 13.1372 9.9898 13.1372V9.67198C8.67976 9.67019 7.38225 9.91848 6.17124 10.4028C4.96024 10.887 3.85949 11.5978 2.93186 12.4943C2.00422 13.3909 1.26785 14.4559 0.764807 15.6284C0.26176 16.8009 0.00188162 18.0579 1.018e-05 19.3277C-0.00186126 20.5975 0.254311 21.8552 0.7539 23.0292C1.25349 24.203 1.98671 25.2699 2.9117 26.1692C3.83669 27.0683 4.93534 27.7821 6.14491 28.2697C7.35448 28.7573 8.65128 29.0093 9.96132 29.0111H9.9898V25.5379Z" fill="#0037FF"/>
<path d="M9.99121 25.5375V29.0028C12.6369 29.0028 15.1742 27.984 17.045 26.1707C18.9158 24.3573 19.9668 21.8977 19.9668 19.3332H16.3878C16.3868 20.9777 15.7126 22.5546 14.5133 23.7178C13.3141 24.8809 11.6878 25.5354 9.99121 25.5375Z" fill="#00CCFF"/>
<path d="M9.99121 6.2043V9.66951C12.6369 9.66951 15.1742 8.65081 17.045 6.8374C18.9158 5.02401 19.9668 2.56452 19.9668 0H16.3878C16.3868 1.64448 15.7126 3.22136 14.5133 4.38455C13.3141 5.54775 11.6878 6.20221 9.99121 6.2043Z" fill="#861DFF"/>
<path d="M20.0244 6.2043V9.66951C22.6701 9.66951 25.2074 8.65081 27.0781 6.8374C28.949 5.02401 29.9999 2.56452 29.9999 0H26.423C26.4219 1.64482 25.7475 3.222 24.5478 4.38525C23.3481 5.5485 21.7213 6.20273 20.0244 6.2043Z" fill="#FF8110"/>
</svg>
