<svg width="30" height="30" viewBox="0 0 30 30" fill="none" xmlns="http://www.w3.org/2000/svg">
<path d="M11.0953 20.9056C9.50127 19.4056 8.56361 17.3431 8.56361 14.9993C8.56361 12.6556 9.50127 10.5931 11.0015 9.09308C12.3142 7.78059 12.3142 5.71809 11.0015 4.40559C9.6888 3.09309 7.62595 3.09309 6.31323 4.40559C3.68779 7.12434 2 10.8743 2 14.9993C2 19.1243 3.68779 22.8743 6.407 25.5931C7.71972 26.9056 9.78257 26.9056 11.0953 25.5931C12.3142 24.2806 12.3142 22.2181 11.0953 20.9056Z" fill="#FAE501"/>
<path d="M11.0952 9.09373C12.5955 7.49999 14.6583 6.56249 17.0025 6.56249C19.3466 6.56249 21.4094 7.49999 22.9097 8.99998C24.2224 10.3125 26.2853 10.3125 27.598 8.99998C28.9107 7.68749 28.9107 5.62499 27.598 4.31249C24.8788 1.6875 21.1281 0 17.0025 0C12.8768 0 9.12612 1.6875 6.40691 4.40624C5.09418 5.71874 5.09418 7.78124 6.40691 9.09373C7.71963 10.3125 9.78248 10.3125 11.0952 9.09373Z" fill="#4FB5E1"/>
<path d="M22.9097 20.9063C21.4094 22.5 19.3466 23.4375 17.0025 23.4375C14.6583 23.4375 12.5955 22.5 11.0952 21C9.78248 19.6875 7.71963 19.6875 6.40691 21C5.09418 22.3125 5.09418 24.375 6.40691 25.6875C9.12612 28.3125 12.8768 30 17.0025 30C21.1281 30 24.8788 28.3125 27.598 25.5938C28.9107 24.2813 28.9107 22.2188 27.598 20.9063C26.2853 19.6875 24.2224 19.6875 22.9097 20.9063Z" fill="#F05751"/>
<path d="M8.75153 10.0317C10.564 10.0317 12.0333 8.56265 12.0333 6.75047C12.0333 4.93829 10.564 3.46922 8.75153 3.46922C6.93904 3.46922 5.46973 4.93829 5.46973 6.75047C5.46973 8.56265 6.93904 10.0317 8.75153 10.0317Z" fill="#0681B6"/>
<path d="M8.75153 26.5315C10.564 26.5315 12.0333 25.0624 12.0333 23.2503C12.0333 21.4381 10.564 19.969 8.75153 19.969C6.93904 19.969 5.46973 21.4381 5.46973 23.2503C5.46973 25.0624 6.93904 26.5315 8.75153 26.5315Z" fill="#CD4739"/>
</svg>
