<svg width="30" height="30" viewBox="0 0 30 30" fill="none" xmlns="http://www.w3.org/2000/svg">
<path d="M6.41176 3.85046C6.41176 7.8702 8.90824 10.282 13.9012 11.5514L19.1903 12.7785C23.9294 13.8787 26.8067 16.5867 26.8067 20.9873C26.849 22.8914 26.2143 24.7531 25.0718 26.2764C25.0718 21.8758 22.7869 19.5063 17.3285 18.0677L12.124 16.8829C7.93503 15.952 4.71924 13.7094 4.71924 8.92803C4.71924 7.10857 5.31162 5.2891 6.41176 3.85046Z" fill="#F04939"/>
<path d="M21.8138 19.8872C24.0564 21.3258 25.0719 23.3568 25.0719 26.2764C23.1678 28.6883 19.9097 30 16.0592 30C9.58533 30 4.9732 26.7842 4 21.2412H10.22C11.024 23.78 13.1396 24.9647 16.0169 24.9647C19.4443 25.0071 21.7715 23.1453 21.8138 19.8872ZM6.41185 3.80818C8.23131 1.43865 11.3625 0 15.1707 0C21.8138 0 25.622 3.51199 26.5952 8.42031H20.5867C19.9097 6.47391 18.2595 4.95063 15.2553 4.95063C11.9972 4.99295 9.7969 6.85473 9.66996 9.81664C7.48957 8.61418 6.32722 6.26234 6.41185 3.80818Z" fill="#F37368"/>
</svg>
