<svg width="132" height="132" viewBox="0 0 132 132" fill="none" xmlns="http://www.w3.org/2000/svg">
<path fill-rule="evenodd" clip-rule="evenodd" d="M120.438 71.3407L130.15 81.071C130.918 81.8425 131.353 82.892 131.353 83.9817V89.4556C131.353 104.122 129.828 109.443 126.965 114.807C124.169 120.104 119.845 124.438 114.555 127.247C109.201 130.11 103.892 131.638 89.2545 131.638H63.5521C63.2202 131.637 62.9219 131.436 62.7956 131.129C62.6693 130.822 62.7398 130.469 62.9744 130.234V130.238L72.6827 120.508C73.4506 119.736 74.4964 119.301 75.5861 119.301H87.4664C98.4436 119.301 102.422 118.156 106.437 116.003C110.405 113.897 113.649 110.647 115.747 106.675C117.857 102.719 118.999 98.796 119.037 88.2046L119.038 71.9221C119.039 71.5912 119.239 71.2935 119.545 71.1666C119.851 71.0397 120.203 71.1083 120.438 71.3407ZM1.40049 63.1097L11.1161 72.8399C11.884 73.6115 12.3192 74.6609 12.3192 75.7506V87.6566C12.3192 98.6594 13.46 102.649 15.6101 106.671C17.707 110.643 20.9493 113.893 24.9162 115.999C28.9312 118.153 32.9133 119.297 43.8904 119.297H59.592C59.9252 119.296 60.2262 119.496 60.3544 119.804C60.4825 120.111 60.4125 120.466 60.1771 120.701L50.4614 130.432C49.6935 131.203 48.6477 131.638 47.5617 131.638H42.0987C27.4612 131.638 22.1555 130.11 16.8022 127.243C11.5103 124.435 7.18498 120.101 4.38795 114.803C1.56458 109.514 0.0426141 104.266 0.000881915 90.0577L0 63.6911C0.00174656 63.3601 0.201619 63.0624 0.507277 62.9355C0.812934 62.8087 1.16487 62.8773 1.40049 63.1097ZM99.9172 50.7686L109.629 60.5098C110.397 61.2814 110.829 62.3271 110.829 63.4205V94.6261C110.829 103.713 103.479 111.081 94.4104 111.081H84.0146C83.6863 111.079 83.3905 110.883 83.2617 110.581C83.133 110.279 83.1958 109.929 83.4222 109.691V109.688L96.0741 96.4178C96.9517 95.5403 97.588 94.5164 97.9865 93.4194C98.336 92.4901 98.5144 91.5052 98.5131 90.5124V51.35C98.5134 51.0174 98.7138 50.7178 99.0211 50.5905C99.3283 50.4633 99.6819 50.5336 99.9172 50.7686ZM21.9141 83.605H21.9105L35.1548 96.2862C36.0287 97.1638 37.0562 97.8001 38.1459 98.1986C39.0454 98.5423 40.0254 98.7288 41.0493 98.7288H80.1239C80.4558 98.7306 80.7541 98.9316 80.8804 99.2385C81.0067 99.5454 80.9362 99.8982 80.7017 100.133L70.9824 109.867C70.2145 110.635 69.1687 111.07 68.0827 111.07H36.9429C32.5836 111.065 28.4049 109.329 25.3258 106.243C22.2468 103.157 20.5198 98.9744 20.5246 94.6151V84.1974C20.5262 83.8692 20.7228 83.5733 21.0247 83.4446C21.3267 83.3158 21.6762 83.3786 21.9141 83.605ZM47.3386 20.5685C47.6669 20.5701 47.9628 20.7666 48.0915 21.0686C48.2202 21.3705 48.1574 21.7201 47.931 21.958L35.2754 35.2316C34.3979 36.1092 33.7653 37.133 33.3667 38.23C33.016 39.1591 32.8363 40.1439 32.8365 41.137V80.2995C32.8333 80.6297 32.6329 80.9261 32.3275 81.052C32.0222 81.178 31.6711 81.1092 31.436 80.8772L21.724 71.136C20.9553 70.3638 20.524 69.3185 20.5246 68.2289V37.0233C20.5246 27.9366 27.8744 20.5685 36.9429 20.5685H47.3386ZM114.555 4.39526C119.845 7.20379 124.169 11.538 126.965 16.8351C129.789 22.1249 131.311 27.372 131.352 41.5807L131.353 67.9474C131.353 68.2799 131.152 68.5796 130.845 68.7068C130.538 68.834 130.184 68.7638 129.949 68.5288V68.5251L120.241 58.7985C119.47 58.0261 119.037 56.9791 119.038 55.8878V43.9819C119.038 32.9791 117.893 28.9897 115.747 24.9674C113.649 20.995 110.405 17.745 106.437 15.6394C102.426 13.4856 98.4436 12.3411 87.4664 12.3411H71.7612C71.4294 12.3393 71.131 12.1384 71.0048 11.8314C70.8785 11.5245 70.949 11.1718 71.1835 10.937L80.8918 1.20669C81.6597 0.435138 82.7055 0 83.7952 0H89.2545C103.892 0 109.201 1.52847 114.555 4.39526ZM67.8011 0C68.133 0.0017624 68.4313 0.202752 68.5576 0.50967C68.6839 0.816587 68.6134 1.16933 68.3789 1.40414L58.6705 11.1344C57.899 11.906 56.8568 12.3411 55.7672 12.3411H43.8868C32.9096 12.3411 28.9275 13.4856 24.9126 15.6394C20.9443 17.745 17.7007 20.995 15.6028 24.9674C13.4564 28.9897 12.3119 32.9791 12.3119 43.9819V59.72C12.3101 60.0509 12.1102 60.3486 11.8046 60.4755C11.4989 60.6024 11.147 60.5338 10.9114 60.3014L1.20669 50.5711C0.434441 49.7992 0 48.7523 0 47.6604V42.1865C0 27.5197 1.52481 22.1994 4.38795 16.8351C7.18401 11.538 11.508 7.20379 16.7985 4.39526C22.0775 1.56828 27.3137 0.0427156 41.4907 0.000884021L67.8011 0ZM94.4104 20.5685C103.479 20.5685 110.829 27.9366 110.829 37.0233V47.441C110.827 47.7693 110.63 48.0651 110.329 48.1939C110.027 48.3226 109.677 48.2598 109.439 48.0334L96.2021 35.3522C95.3245 34.4746 94.3007 33.8384 93.2073 33.4398C92.2797 33.0884 91.2959 32.9088 90.304 32.9096H51.2293C50.8968 32.9093 50.5971 32.7089 50.4699 32.4016C50.3426 32.0944 50.4129 31.7408 50.6479 31.5055L60.3709 21.7715C61.1387 21.0036 62.1809 20.5685 63.2706 20.5685H94.4104Z" fill="white"/>
</svg>
